:version 1.10
:name ASF
:units
  mass 1
  length 1
  angle deg
:documentation
  ASF file generated by Kaydara
:root
  axis xyz
  order  tx ty tz rx ry rz
  position 0 0 0
  orientation 0 0 0
:bonedata
  begin
    id 1
    name lfemurDummy
    direction 0.61522 -0.761478 0.204097
    length 5.68318
    axis 0 -0 0 xyz
  end
  begin
    id 2
    name lfemur
    direction 0.34202 -0.939693 -5.84747e-008
    length 16.9147
    axis 0 -0 20 xyz
    dof rx ry rz
    limits( -inf , inf )
( -inf , inf )
( -inf , inf )

  end
  begin
    id 3
    name ltibia
    direction 0.34202 -0.939693 1.20839e-009
    length 18.0532
    axis 0 -0 20 xyz
    dof rz ry rx
    limits( -inf , inf )
( -inf , inf )
( -inf , inf )

  end
  begin
    id 4
    name lfoot
    direction 0.0841971 -0.23133 0.969225
    length 5.23822
    axis -90 7.62852e-016 20 xyz
    dof ry rx rz
    limits( -inf , inf )
( -inf , inf )
( -inf , inf )

  end
  begin
    id 5
    name ltoes
    direction 0 0 0
    length 0
    axis 0 0 0 xyz
    dof rz ry rx
    limits( -inf , inf )
( -inf , inf )
( -inf , inf )

  end
  begin
    id 6
    name rfemurDummy
    direction -0.625247 -0.75382 0.202044
    length 5.74091
    axis 0 -0 0 xyz
  end
  begin
    id 7
    name rfemur
    direction -0.34202 -0.939693 -1.47013e-008
    length 16.4922
    axis 0 -0 -20 xyz
    dof rx ry rz
    limits( -inf , inf )
( -inf , inf )
( -inf , inf )

  end
  begin
    id 8
    name rtibia
    direction -0.34202 -0.939693 -7.74345e-010
    length 18.2421
    axis 0 -0 -20 xyz
    dof rz ry rx
    limits( -inf , inf )
( -inf , inf )
( -inf , inf )

  end
  begin
    id 9
    name rfoot
    direction -0.124331 -0.341598 0.931586
    length 5.45787
    axis -90 -7.62852e-016 -20 xyz
    dof ry rx rz
    limits( -inf , inf )
( -inf , inf )
( -inf , inf )

  end
  begin
    id 10
    name rtoes
    direction 0 0 0
    length 0
    axis 0 0 0 xyz
    dof rz ry rx
    limits( -inf , inf )
( -inf , inf )
( -inf , inf )

  end
  begin
    id 11
    name lowerbackDummy
    direction 0 0 0
    length 0
    axis 0 -0 0 xyz
  end
  begin
    id 12
    name lowerback
    direction -0.0218484 0.994884 -0.0986304
    length 4.45607
    axis 0 -0 0 xyz
    dof rx ry rz
    limits( -inf , inf )
( -inf , inf )
( -inf , inf )

  end
  begin
    id 13
    name upperback
    direction -0.00973057 0.999717 -0.0217111
    length 4.47449
    axis 0 -0 0 xyz
    dof rx ry rz
    limits( -inf , inf )
( -inf , inf )
( -inf , inf )

  end
  begin
    id 14
    name thorax
    direction -0.000928171 0.999699 0.0245198
    length 4.50973
    axis 0 -0 0 xyz
    dof rx ry rz
    limits( -inf , inf )
( -inf , inf )
( -inf , inf )

  end
  begin
    id 15
    name rclavicle
    direction -0.9009 0.425937 -0.0834055
    length 7.28587
    axis 0 -0 0 xyz
    dof rx ry rz
    limits( -inf , inf )
( -inf , inf )
( -inf , inf )

  end
  begin
    id 16
    name rhumerus
    direction -1 -2.23604e-007 -1.42637e-007
    length 13.5704
    axis 180 30 90 xyz
    dof rx ry rz
    limits( -inf , inf )
( -inf , inf )
( -inf , inf )

  end
  begin
    id 17
    name rradius
    direction -1 5.68281e-008 -4.4952e-007
    length 8.06782
    axis 180 30 90 xyz
    dof rz ry rx
    limits( -inf , inf )
( -inf , inf )
( -inf , inf )

  end
  begin
    id 18
    name rwrist
    direction -1 1.51393e-007 1.38143e-007
    length 4.03391
    axis -90 -90 0 xyz
    dof rz rx ry
    limits( -inf , inf )
( -inf , inf )
( -inf , inf )

  end
  begin
    id 19
    name rthumb
    direction 0 0 0
    length 0
    axis 0 0 0 xyz
    dof ry rx rz
    limits( -inf , inf )
( -inf , inf )
( -inf , inf )

  end
  begin
    id 20
    name rhand
    direction -1 -3.34077e-007 -5.59631e-007
    length 1.29744
    axis -90 -90 0 xyz
    dof ry rx rz
    limits( -inf , inf )
( -inf , inf )
( -inf , inf )

  end
  begin
    id 21
    name rfingers
    direction 0 0 0
    length 0
    axis 0 0 0 xyz
    dof rz ry rx
    limits( -inf , inf )
( -inf , inf )
( -inf , inf )

  end
  begin
    id 22
    name lclavicle
    direction 0.940017 0.332249 -0.0773232
    length 8.29589
    axis 0 -0 0 xyz
    dof rx ry rz
    limits( -inf , inf )
( -inf , inf )
( -inf , inf )

  end
  begin
    id 23
    name lhumerus
    direction 1 7.41158e-008 -1.44768e-008
    length 12.0042
    axis 180 -30 -90 xyz
    dof rx ry rz
    limits( -inf , inf )
( -inf , inf )
( -inf , inf )

  end
  begin
    id 24
    name lradius
    direction 1 -1.32972e-007 3.10821e-007
    length 8.1902
    axis 180 -30 -90 xyz
    dof rz ry rx
    limits( -inf , inf )
( -inf , inf )
( -inf , inf )

  end
  begin
    id 25
    name lwrist
    direction 1 3.08957e-007 4.01394e-007
    length 4.09509
    axis -90 90 0 xyz
    dof rz rx ry
    limits( -inf , inf )
( -inf , inf )
( -inf , inf )

  end
  begin
    id 26
    name lthumb
    direction 0 0 0
    length 0
    axis 0 0 0 xyz
    dof ry rx rz
    limits( -inf , inf )
( -inf , inf )
( -inf , inf )

  end
  begin
    id 27
    name lhand
    direction 1 -1.64125e-007 -6.99514e-007
    length 1.37229
    axis -90 90 0 xyz
    dof ry rx rz
    limits( -inf , inf )
( -inf , inf )
( -inf , inf )

  end
  begin
    id 28
    name lfingers
    direction 0 0 0
    length 0
    axis 0 0 0 xyz
    dof rz ry rx
    limits( -inf , inf )
( -inf , inf )
( -inf , inf )

  end
  begin
    id 29
    name lowerneck
    direction -0.030798 0.998024 0.0547665
    length 3.93918
    axis 0 -0 0 xyz
    dof rx ry rz
    limits( -inf , inf )
( -inf , inf )
( -inf , inf )

  end
  begin
    id 30
    name upperneck
    direction 0.0531588 0.996611 -0.0627736
    length 3.95491
    axis 0 -0 0 xyz
    dof rx ry rz
    limits( -inf , inf )
( -inf , inf )
( -inf , inf )

  end
  begin
    id 31
    name head
    direction 0 0 0
    length 0
    axis 0 0 0 xyz
    dof rx ry rz
    limits( -inf , inf )
( -inf , inf )
( -inf , inf )

  end
:hierarchy
  begin
    root lfemurDummy rfemurDummy lowerbackDummy
    lfemurDummy lfemur
    lfemur ltibia
    ltibia lfoot
    lfoot ltoes
    rfemurDummy rfemur
    rfemur rtibia
    rtibia rfoot
    rfoot rtoes
    lowerbackDummy lowerback
    lowerback upperback
    upperback thorax
    thorax rclavicle lclavicle lowerneck
    rclavicle rhumerus
    rhumerus rradius
    rradius rwrist
    rwrist rthumb rhand
    rhand rfingers
    lclavicle lhumerus
    lhumerus lradius
    lradius lwrist
    lwrist lthumb lhand
    lhand lfingers
    lowerneck upperneck
    upperneck head
  end

:SAMPLES-PER-SECOND 30
:FULLY-SPECIFIED
:DEGREES
100
root  -3.467533157 36.30666658 -1.235953372 -1.427978516 -21.37199402 -3.07800293
lowerback  13.1637001 -2.576859951 -8.255319595
upperback  6.586440086 -4.432459831 -1.294559956
thorax  0.1301449984 -2.430680037 3.816699982
lowerneck  10.7901001 -0.2274650037 -10.4090004
upperneck  10.53250027 -2.446010113 16.21489906
head  1.55795002 -1.539129972 6.799399853
lclavicle  0 -9.442270133e-015 7.951389973e-016
lhumerus  30.96509933 -22.54780006 78.61219788
lradius  1.575083711e-031 -3.160372658e-031 116.4909973
lwrist  -7.062250077e-031 2.206953149e-031 27.01140022
lhand  -1.496451383e-031 -27.76390076 20.11240005
lfingers  90 7.125020027 -90
lthumb  89.89689403 5.08795885 91.16245106
rclavicle  0 -9.442270133e-015 7.951389973e-016
rhumerus  33.86149979 -3.352309942 -74.05410004
rradius  -2.380317901e-031 2.608242843e-031 132.3840027
rwrist  0 -1.765562519e-031 -5.486879826
rhand  -7.920061211e-032 -33.2840004 9.303460121
rfingers  -90 -7.125020027 -90
rthumb  -92.93752616 -24.25625642 -97.11982154
rfemur  -32.59540176 10.61240005 0.9501720071
rtibia  -0 0 63.80319977
rfoot  -4.572559054e-032 -15.13720036 2.057130098
rtoes  5.373923086 19.29304026 -105.8922705
lfemur  -15.07730007 -9.381259918 -0.5630689859
ltibia  -0 0 61.19729996
lfoot  -0 -28.57500076 -7.403289795
ltoes  -4.250644065 -19.5611806 -102.515957
101
root  -3.481888959 36.25955657 -1.281777799 -1.437988281 -20.83599854 -2.888000488
lowerback  13.07310009 -2.630350113 -9.191610336
upperback  6.459179878 -4.597459793 -0.921702981
thorax  0.1872169971 -2.540149927 4.74048996
lowerneck  10.78429985 -0.3969089985 -10.81229973
upperneck  10.45790005 -2.719490051 16.44689941
head  1.578500032 -1.687330008 6.949639797
lclavicle  0 -9.442270133e-015 7.951389973e-016
lhumerus  31.05870056 -23.02549934 79.51879883
lradius  1.571607974e-031 -3.16210253e-031 116.4280014
lwrist  -7.062250077e-031 1.765562519e-031 26.02090073
lhand  -1.496451383e-031 -27.76390076 20.11240005
lfingers  90 7.125020027 -90
lthumb  89.89689403 5.08795885 91.16245106
rclavicle  0 -9.442270133e-015 7.951389973e-016
rhumerus  33.11579895 -3.436779976 -73.41619873
rradius  -2.403575205e-031 2.586826293e-031 132.8970032
rwrist  7.062250077e-031 -1.765562519e-031 -5.261680126
rhand  -7.920061211e-032 -33.2840004 9.303460121
rfingers  -90 -7.125020027 -90
rthumb  -92.93752616 -24.25625642 -97.11982154
rfemur  -32.88270187 10.69929981 0.6648139954
rtibia  -0 0 64.35569763
rfoot  -4.570802703e-032 -15.05560017 1.834480047
rtoes  5.373923086 19.29304026 -105.8922705
lfemur  -15.55080032 -9.512669563 -1.15467
ltibia  -0 0 61.71670151
lfoot  5.064033029e-032 -29.35269928 -4.807610035
ltoes  -4.250644065 -19.5611806 -102.515957
102
root  -3.46624457 36.22755516 -1.330835519 -1.62097168 -21.0039978 -2.596008301
lowerback  12.91629982 -2.4863801 -10.00150013
upperback  6.470729828 -4.479139805 -0.7449089885
thorax  0.3592779934 -2.513959885 5.351170063
lowerneck  10.91049957 -0.4678930044 -10.83889961
upperneck  10.2251997 -2.792759895 16.34390068
head  1.502390027 -1.733010054 6.921299934
lclavicle  0 -9.442270133e-015 7.951389973e-016
lhumerus  31.07589912 -23.54339981 80.1371994
lradius  1.570283183e-031 -3.162760623e-031 116.4039993
lwrist  -7.062250077e-031 8.827812596e-032 25.23240089
lhand  -1.496451383e-031 -27.76390076 20.11240005
lfingers  90 7.125020027 -90
lthumb  89.89689403 5.08795885 91.16245106
rclavicle  0 -9.442270133e-015 7.951389973e-016
rhumerus  32.27939987 -3.449140072 -73.04370117
rradius  -2.428116404e-031 2.563804744e-031 133.4429932
rwrist  7.062250077e-031 -0 -4.794660091
rhand  -7.920061211e-032 -33.2840004 9.303460121
rfingers  -90 -7.125020027 -90
rthumb  -92.93752616 -24.25625642 -97.11982154
rfemur  -33.25510025 11.48359966 0.3218620121
rtibia  -0 0 64.68650055
rfoot  -5.708950945e-032 -14.88479996 1.294389963
rtoes  5.373923086 19.29304026 -105.8922705
lfemur  -15.68970013 -9.083200455 -1.979570031
ltibia  -0 0 62.43909836
lfoot  5.052652414e-032 -29.12240028 -3.293570042
ltoes  -4.250644065 -19.5611806 -102.515957
103
root  -3.411222067 36.25555564 -1.361513326 -2.013977051 -21.74699402 -2.325012207
lowerback  12.72679996 -2.20607996 -10.57699966
upperback  6.613609791 -4.145740032 -0.6518840194
thorax  0.6198009849 -2.385699987 5.71792984
lowerneck  10.88939953 -0.56744802 -11.11079979
upperneck  10.30440044 -2.975280046 16.53269958
head  1.557279944 -1.829920053 7.034080029
lclavicle  0 -9.442270133e-015 7.951389973e-016
lhumerus  30.86370087 -24.03120041 80.75409698
lradius  1.572932489e-031 -3.161443882e-031 116.4520035
lwrist  -7.062250077e-031 1.765562519e-031 24.60160065
lhand  -1.496451383e-031 -27.76390076 20.11240005
lfingers  90 7.125020027 -90
lthumb  89.89689403 5.08795885 91.16245106
rclavicle  0 -9.442270133e-015 7.951389973e-016
rhumerus  31.4095993 -3.360270023 -72.81479645
rradius  -2.450885236e-031 2.542047521e-031 133.9539948
rwrist  7.062250077e-031 -1.765562519e-031 -4.509150028
rhand  -7.920061211e-032 -33.2840004 9.303460121
rfingers  -90 -7.125020027 -90
rthumb  -92.93752616 -24.25625642 -97.11982154
rfemur  -33.37080002 12.5927 0.07094579935
rtibia  -0 0 64.62419891
rfoot  -5.133594547e-032 -14.69629955 0.7466509938
rtoes  5.373923086 19.29304026 -105.8922705
lfemur  -15.51319981 -8.557889938 -2.831140041
ltibia  -0 0 63.28730011
lfoot  7.541734852e-032 -28.61039925 -2.119050026
ltoes  -4.250644065 -19.5611806 -102.515957
